<?xml version="1.0" standalone="no"?>
<!DOCTYPE svg PUBLIC "-//W3C//DTD SVG 20010904//EN"
 "http://www.w3.org/TR/2001/REC-SVG-20010904/DTD/svg10.dtd">
<svg version="1.0" xmlns="http://www.w3.org/2000/svg"
 width="500.000000pt" height="500.000000pt" viewBox="0 0 500.000000 500.000000"
 preserveAspectRatio="xMidYMid meet">

<g transform="translate(0.000000,500.000000) scale(0.100000,-0.100000)"
fill="#000000" stroke="none">
<path d="M3380 2745 c0 -10 10 -15 30 -15 90 0 212 -48 285 -112 76 -67 149
-204 124 -234 -25 -30 -48 -15 -78 50 -53 118 -146 191 -274 218 -49 11 -62
10 -85 -3 -55 -30 -34 -119 28 -119 39 0 105 -25 143 -54 45 -34 79 -96 66
-119 -16 -29 -45 -20 -73 24 -30 45 -99 82 -143 77 -40 -5 -41 -28 -1 -28 47
-1 92 -28 128 -78 27 -37 35 -43 62 -40 20 2 38 13 51 30 20 26 20 26 -2 72
-39 79 -115 131 -211 145 -40 5 -45 9 -48 33 -3 22 2 29 23 34 31 8 103 -9
158 -38 58 -29 132 -109 153 -165 23 -63 41 -83 75 -83 40 0 72 37 65 75 -19
97 -125 230 -224 283 -101 54 -252 82 -252 47z"/>
<path d="M1580 2500 l0 -240 45 0 45 0 0 100 0 100 95 0 95 0 0 45 0 45 -95 0
-95 0 0 50 0 50 70 0 70 0 0 45 0 45 -115 0 -115 0 0 -240z"/>
<path d="M1880 2695 l0 -45 96 0 c114 0 134 -8 134 -55 0 -47 -20 -55 -134
-55 l-96 0 0 -140 0 -140 45 0 45 0 0 95 0 95 28 0 c26 0 32 -8 71 -95 l44
-95 48 0 48 0 -48 104 -49 104 24 11 c57 26 80 118 47 188 -25 54 -75 73 -200
73 l-103 0 0 -45z"/>
<path d="M2230 2560 l0 -180 40 0 40 0 0 95 c0 52 3 95 8 95 4 0 56 -70 115
-155 l108 -155 45 0 44 0 0 240 0 240 -45 0 -45 0 0 -156 c0 -124 -3 -154 -12
-146 -7 6 -58 76 -113 156 l-100 145 -42 1 -43 0 0 -180z"/>
<path d="M2650 2645 l0 -95 45 0 45 0 0 51 0 52 51 -5 c88 -9 133 -61 132
-155 -1 -86 -57 -143 -140 -143 l-43 0 0 50 0 50 -45 0 -45 0 0 -96 0 -97 96
6 c196 11 273 89 262 262 -5 80 -29 130 -77 165 -40 28 -134 50 -213 50 l-68
0 0 -95z"/>
<path d="M3125 2726 c-51 -22 -85 -71 -85 -122 0 -25 7 -59 16 -75 16 -32 81
-68 121 -69 35 0 54 -11 64 -38 11 -28 -11 -72 -36 -72 -11 0 -15 -12 -15 -45
0 -49 5 -52 53 -31 52 22 79 59 85 114 8 87 -31 134 -129 152 -75 14 -97 46
-61 90 25 31 70 30 97 -4 16 -20 30 -26 58 -26 45 0 49 19 14 71 -41 61 -116
84 -182 55z"/>
<path d="M3365 2335 c-14 -13 -25 -30 -25 -38 0 -26 41 -67 66 -67 31 0 64 33
64 65 0 30 -32 65 -60 65 -12 0 -32 -11 -45 -25z m61 -63 c-15 -15 -15 -15 -4
10 7 15 15 23 17 17 2 -6 -4 -18 -13 -27z"/>
</g>
</svg>
